<svg width="256" height="256" viewBox="0 0 256 256" fill="none" xmlns="http://www.w3.org/2000/svg">
<rect width="256" height="256" fill="#5AC6D4"/>
<path d="M236.136 62.7458C236.136 54.5089 229.457 47.8305 221.22 47.8305H34.7797C26.5428 47.8305 19.8644 54.5089 19.8644 62.7458V167.153H236.161L236.136 62.7458Z" fill="#348FD9"/>
<path d="M19.8644 159.695H236.136V167.153H19.8644V159.695Z" fill="#3086CD"/>
<path d="M160.214 230.542L146.662 193.254H109.374L95.8062 230.542H79.5327V238H176.482V230.542H160.214Z" fill="#E0E0DE"/>
<path d="M19.8644 167.153V178.339C19.8644 186.576 26.5428 193.254 34.7797 193.254H221.246C229.485 193.254 236.161 186.576 236.161 178.339V167.153H19.8644Z" fill="#E0E0DE"/>
<path d="M191.415 18H64.6357C56.3988 18 49.7204 24.6784 49.7204 32.9153V167.153H206.331V32.9153C206.331 24.6784 199.654 18 191.415 18Z" fill="#60D1E0"/>
<path d="M201.438 21.9346L56.2131 167.153H206.331V32.9153C206.323 28.7276 204.546 24.7403 201.438 21.9346V21.9346Z" fill="#5AC6D4"/>
<path d="M68.339 85.1186H187.661V114.949H68.339V85.1186Z" fill="#E0E0DE"/>
<path d="M68.339 85.1186H187.661V92.5763H68.339V85.1186Z" fill="#D6D6D4"/>
<path d="M79.5254 96.3051H86.983V103.763H79.5254V96.3051Z" fill="#FFB531"/>
<path d="M94.4407 96.3051H101.898V103.763H94.4407V96.3051Z" fill="#FFB531"/>
<path d="M109.356 96.3051H116.814V103.763H109.356V96.3051Z" fill="#FFB531"/>
<path d="M124.271 96.3051H131.729V103.763H124.271V96.3051Z" fill="#FFB531"/>
<path d="M64.6102 29.1864H72.0678V36.6441H64.6102V29.1864Z" fill="#3A9CC9"/>
<path d="M79.5254 29.1864H86.983V36.6441H79.5254V29.1864Z" fill="#3A9CC9"/>
<path d="M94.4407 29.1864H101.898V36.6441H94.4407V29.1864Z" fill="#3A9CC9"/>
<path d="M64.6102 44.1017H191.39V51.5593H64.6102V44.1017Z" fill="#3A9CC9"/>
<path d="M165.288 114.949L172.746 107.492L142.915 103.763L146.644 133.593L154.102 126.136L169.017 141.051L180.203 129.864L165.288 114.949Z" fill="#69A340"/>
<path d="M149.37 200.712L146.662 193.254H109.374L106.659 200.712H149.37Z" fill="#D6D6D4"/>
<path d="M206.305 47.8305H213.763V167.153H206.305V47.8305Z" fill="#3086CD"/>
<path d="M49.6949 159.695H206.305V167.153H49.6949V159.695Z" fill="#5AC6D4"/>
</svg>
